/* XPM */
static const char *const cog_xpm[] = {
"18 18 158 2",
"  	c None",
". 	c #5B6A89",
"+ 	c #5B6987",
"@ 	c #63799F",
"# 	c #65799D",
"$ 	c #8B92A6",
"% 	c #767E94",
"& 	c #5C6683",
"* 	c #667BA2",
"= 	c #6B7EA4",
"- 	c #58627D",
"; 	c #6D7893",
"> 	c #6B7691",
", 	c #70788E",
"' 	c #B4BED1",
") 	c #B2BCD0",
"! 	c #969EB1",
"~ 	c #96A0B7",
"{ 	c #7587AB",
"] 	c #6277A0",
"^ 	c #6579A2",
"/ 	c #7888AC",
"( 	c #7582A1",
"_ 	c #7884A2",
": 	c #7584AB",
"< 	c #828FB1",
"[ 	c #545C76",
"} 	c #A2AABC",
"| 	c #B3BDD2",
"1 	c #9DA9C3",
"2 	c #6A7CA5",
"3 	c #6C7DA6",
"4 	c #6E7FA8",
"5 	c #7282A9",
"6 	c #7C89AF",
"7 	c #78819D",
"8 	c #888DA0",
"9 	c #BAC2D5",
"0 	c #B6BFD3",
"a 	c #8C99B9",
"b 	c #7D8BB0",
"c 	c #99A3BF",
"d 	c #9AA4C0",
"e 	c #808CB1",
"f 	c #7A87AE",
"g 	c #7C89B0",
"h 	c #8E98B9",
"i 	c #626883",
"j 	c #A6ACBE",
"k 	c #BBC2D6",
"l 	c #AEB6CE",
"m 	c #A2AAC4",
"n 	c #9197AC",
"o 	c #979CB2",
"p 	c #949CBD",
"q 	c #868FB5",
"r 	c #959CBE",
"s 	c #8D92AA",
"t 	c #868B9E",
"u 	c #9B9FB1",
"v 	c #C1C7D8",
"w 	c #B5BCD2",
"x 	c #9FA7C4",
"y 	c #9AA0B4",
"z 	c #A0A4BB",
"A 	c #A1A6C5",
"B 	c #B1B5CF",
"C 	c #B8BBD1",
"D 	c #9295AF",
"E 	c #8588A2",
"F 	c #969AA9",
"G 	c #BCC2D6",
"H 	c #BBC0D5",
"I 	c #A6ADC8",
"J 	c #969EBF",
"K 	c #969DBF",
"L 	c #8D91A7",
"M 	c #A0A3B4",
"N 	c #C2C4DA",
"O 	c #BCBED6",
"P 	c #A1A3C5",
"Q 	c #A0A1C4",
"R 	c #A8A9C9",
"S 	c #80829A",
"T 	c #8D94AF",
"U 	c #969CB7",
"V 	c #969CBF",
"W 	c #9197BC",
"X 	c #999EC0",
"Y 	c #9CA0B2",
"Z 	c #B4B6C3",
"` 	c #C8C8DD",
" .	c #A6A6C8",
"..	c #ADACCB",
"+.	c #9A9AB5",
"@.	c #9697AE",
"#.	c #9A9DBB",
"$.	c #9B9DC2",
"%.	c #9D9FC3",
"&.	c #B0B1CA",
"*.	c #85879A",
"=.	c #D1D0DF",
"-.	c #BAB8D4",
";.	c #AEABCD",
">.	c #A3A2BC",
",.	c #8B8DA6",
"'.	c #A8A8C9",
").	c #AAA9CB",
"!.	c #B8B6D0",
"~.	c #AEAEC3",
"{.	c #B0AFC5",
"].	c #C3C0D7",
"^.	c #D6D3E6",
"/.	c #B9B4D3",
"(.	c #BBB6D4",
"_.	c #918FA7",
":.	c #8888A1",
"<.	c #B3B0CF",
"[.	c #B0ACCE",
"}.	c #B2AECF",
"|.	c #B4AFD0",
"1.	c #B7B1D2",
"2.	c #B9B2D3",
"3.	c #C2BCD9",
"4.	c #DBD7E9",
"5.	c #C2BAD9",
"6.	c #C3BAD9",
"7.	c #A7A3BA",
"8.	c #B7B3CF",
"9.	c #B9B3D3",
"0.	c #BEB9D4",
"a.	c #BFB9D6",
"b.	c #BEB6D6",
"c.	c #C0B7D7",
"d.	c #C2B9D9",
"e.	c #C7BEDC",
"f.	c #D7D0E5",
"g.	c #C4BED5",
"h.	c #CAC0DD",
"i.	c #CBC1DE",
"j.	c #89879E",
"k.	c #B8B4CD",
"l.	c #A3A0B8",
"m.	c #585A71",
"n.	c #8A889E",
"o.	c #ACA7BF",
"p.	c #CBC0DE",
"q.	c #B1ABC3",
"r.	c #868399",
"s.	c #928FA5",
"t.	c #B4AEC6",
"u.	c #BFB7D2",
"v.	c #CDC3DF",
"w.	c #6A697E",
"x.	c #B5AFC6",
"y.	c #C0B9D2",
"z.	c #6B697E",
"A.	c #6A6A7E",
"                . +                 ",
"                @ #                 ",
"      $ %     & * = -     ; >       ",
"    , ' ) ! ~ { ] ^ / ( _ : < [     ",
"      } ) | 1 2 2 3 4 5 : 6 7       ",
"      8 9 0 a b c d e f g h i       ",
"      j k l m n     o p q r s       ",
"  t u v w x y         z A B C D E   ",
"F G H I J K L         M N O P Q R S ",
"  T U V W X Y         Z `  ...+.@.  ",
"      #.$.%.&.      *.=.-.;.>.      ",
"      ,.'. .).!.~.{.].^./.(._.      ",
"      :.<.[.}.|.1.2.3.4.5.6.7.      ",
"      8.9.0.a.b.c.d.e.f.g.h.i.j.    ",
"      k.l.m.n.o.h.p.q.r.  s.t.      ",
"                u.v.w.              ",
"                x.y.        z.w.w.w.",
"                              A.w.  "};
