/* XPM */
static const char *const copy_xpm[] = {
"18 18 163 2",
"  	c None",
". 	c #000000",
"+ 	c #90938D",
"@ 	c #898B85",
"# 	c #92928C",
"$ 	c #8B8D87",
"% 	c #FFFFFF",
"& 	c #F1F1EF",
"* 	c #EFEFEF",
"= 	c #EFEFED",
"- 	c #C9C9C7",
"; 	c #9A9B96",
"> 	c #91928D",
", 	c #C9C9C9",
"' 	c #C7C7C7",
") 	c #EDEDED",
"! 	c #EDEDEB",
"~ 	c #C7C7C5",
"{ 	c #C5C5C5",
"] 	c #EBEBEB",
"^ 	c #C5C5C3",
"/ 	c #C3C3C3",
"( 	c #FDFDFD",
"_ 	c #898B87",
": 	c #EBEBE9",
"< 	c #E9E9E9",
"[ 	c #FBFBFB",
"} 	c #F9F9F9",
"| 	c #F7F7F7",
"1 	c #F5F5F5",
"2 	c #F1F1F1",
"3 	c #F3F3F3",
"4 	c #8F928C",
"5 	c #888A85",
"6 	c #888C85",
"7 	c #8B8E89",
"8 	c #878A85",
"9 	c #8B8E88",
"0 	c #FFFFFF",
"a 	c #868A84",
"b 	c #BDC5BD",
"c 	c #878A84",
"d 	c #898980",
"e 	c #FFFFFF",
"f 	c #888B86",
"g 	c #858984",
"h 	c #808F80",
"i 	c #868B85",
"j 	c #848984",
"k 	c #8F908C",
"l 	c #8C8E8A",
"m 	c #8C8E89",
"n 	c #8D908A",
"o 	c #8B8D88",
"p 	c #888C86",
"q 	c #888C86",
"r 	c #888B85",
"s 	c #858885",
"t 	c #808080",
"u 	c #8F8F80",
"v 	c #878787",
"w 	c #808080",
"x 	c #888A85",
"y 	c #FFFFFF",
"z 	c #F0F0EF",
"A 	c #EFEFEE",
"B 	c #EFEFEF",
"C 	c #EEEEEE",
"D 	c #EEEEED",
"E 	c #C8C8C8",
"F 	c #C8C8C7",
"G 	c #C7C7C7",
"H 	c #C7C7C6",
"I 	c #EDEDED",
"J 	c #C6C6C6",
"K 	c #C6C6C5",
"L 	c #EDEDEC",
"M 	c #ECECEB",
"N 	c #EBEBEB",
"O 	c #ECECEC",
"P 	c #C5C5C5",
"Q 	c #C5C5C4",
"R 	c #C4C4C4",
"S 	c #EBEBEA",
"T 	c #EAEAEA",
"U 	c #EAEAE9",
"V 	c #FEFEFE",
"W 	c #C4C4C3",
"X 	c #C3C3C3",
"Y 	c #E9E9E9",
"Z 	c #FDFDFD",
"` 	c #E9E9E8",
" .	c #FBFBFB",
"..	c #E8E8E8",
"+.	c #FAFAFA",
"@.	c #C3C3C2",
"#.	c #C2C2C2",
"$.	c #C1C1C1",
"%.	c #E8E8E7",
"&.	c #E7E7E7",
"*.	c #E6E6E6",
"=.	c #F1F1F1",
"-.	c #F0F0F0",
";.	c #F2F2F2",
">.	c #F4F4F4",
",.	c #F6F6F6",
"'.	c #F8F8F8",
").	c #FCFCFC",
"!.	c #F3F3F3",
"~.	c #F5F5F5",
"{.	c #F7F7F7",
"].	c #F9F9F9",
"^.	c #878A85",
"/.	c #EBECEA",
"(.	c #A9ABA6",
"_.	c #939691",
":.	c #868A84",
"<.	c #878B85",
"[.	c #8C908A",
"}.	c #8C908B",
"|.	c #8D908B",
"1.	c #959893",
"2.	c #D1D1D1",
"3.	c #CFCFCF",
"4.	c #B8B8B8",
"5.	c #A8A9A8",
"6.	c #A0A0A0",
"7.	c #999C97",
"8.	c #C6C7C5",
"9.	c #BEBEBE",
"0.	c #B9B9B9",
"a.	c #B4B4B4",
"b.	c #A9A9A9",
"c.	c #9E9E9E",
"d.	c #8C8E8B",
"e.	c #9C9F9A",
"f.	c #BDBEBD",
"g.	c #BABABA",
"h.	c #B3B3B3",
"i.	c #A8A8A8",
"j.	c #9D9D9D",
"k.	c #8C8D8B",
"l.	c #F7F7F5",
"m.	c #989B97",
"n.	c #B0B1AF",
"o.	c #B1B1B1",
"p.	c #A6A6A6",
"q.	c #9B9B9B",
"r.	c #8A8C89",
"s.	c #F8F8F7",
"t.	c #F4F4F2",
"u.	c #EFEFED",
"v.	c #A9AAA9",
"w.	c #A4A4A4",
"x.	c #959695",
"y.	c #FBFBFA",
"z.	c #F6F6F5",
"A.	c #F1F1F0",
"B.	c #EDEDEB",
"C.	c #E8E8E5",
"D.	c #8B8E89",
"E.	c #9A9C9A",
"F.	c #8C8F8B",
"                                    ",
"  >.;.;.;.;.;.;.;.;.;.|             ",
"  ;.& & & & & & & & z 1             ",
"  ;.! &.&.2.3.3.3.3., 2.            ",
"  ;.` *.*.3.A A A A A A A A A A S   ",
"  ;.*.2.2.2.z z z z z z z z z z A   ",
"  ;.! &.C.2.z z z z z z z z z A D   ",
"  ;.` *.*.2.z *.2.2.2.2.3.3.3.*.)   ",
"  2 *.2.2.2.z ` *.*.*.*.*.*.*.O L   ",
"  z U *.*.2.z ` *.*.*.*.*.*.*.] O   ",
"  * *.2.2.2.z *.3.3.3.3.3., *.T ]   ",
"  ) ] S T 2.z %.*.*.*.*.*.*.*.*.<   ",
"  O U < ] 2.C *.*.*.*.2.2.2.2.*.)   ",
"  &.*.&.M 2.) O ] S T < < T * 1 3   ",
"          3.M ] T U < < C *.2.2.W   ",
"          3.S T < < O 2 | 2./ n._.  ",
"          , T T ] -.1 +.+.3.p.4     ",
"            f.f.9.$.@.@.f.w.        "};
