/* XPM */
static const char *const erase_xpm[] = {
"18 18 155 2",
"  	c None",
". 	c #C1C1C0",
"+ 	c #C1C1BF",
"@ 	c #C0C1BF",
"# 	c #C0C0BE",
"$ 	c #BFC0BE",
"% 	c #BBBCBA",
"& 	c #E7E7E7",
"* 	c #DEDEDE",
"= 	c #DDDDDD",
"- 	c #DCDCDC",
"; 	c #DBDBDB",
"> 	c #E5E5E5",
", 	c #406DAA",
"' 	c #A1A8B6",
") 	c #D4D4D4",
"! 	c #D3D3D3",
"~ 	c #5C77A1",
"{ 	c #3C69A5",
"] 	c #3A66A3",
"^ 	c #588AC9",
"/ 	c #8A96AA",
"( 	c #BEBEBE",
"_ 	c #B6B6B6",
": 	c #B5B5B5",
"< 	c #B4B4B4",
"[ 	c #B8B8B8",
"} 	c #C0C1C0",
"| 	c #5D81B2",
"1 	c #5687C7",
"2 	c #527EBA",
"3 	c #5585C2",
"4 	c #5B78A3",
"5 	c #6B83A8",
"6 	c #6A83A8",
"7 	c #6C84A9",
"8 	c #5978AB",
"9 	c #6185C3",
"0 	c #4572AF",
"a 	c #6290CB",
"b 	c #598BCB",
"c 	c #B16583",
"d 	c #D25A5A",
"e 	c #6682BC",
"f 	c #5576A7",
"g 	c #5481BB",
"h 	c #4879B7",
"i 	c #4979B7",
"j 	c #546FA8",
"k 	c #616599",
"l 	c #4F7CB7",
"m 	c #456BA2",
"n 	c #5B78A4",
"o 	c #627CA5",
"p 	c #647DA6",
"q 	c #6D84AA",
"r 	c #6B83AA",
"s 	c #6881A8",
"t 	c #6780A7",
"u 	c #6981A8",
"v 	c #667FA7",
"w 	c #637DA6",
"x 	c #667EA7",
"y 	c #637CA5",
"z 	c #5774A0",
"A 	c #5F7BA5",
"B 	c #406498",
"C 	c #90928C",
"D 	c #999B96",
"E 	c #C7C8C7",
"F 	c #C3C3C2",
"G 	c #CBCBCA",
"H 	c #BEBEBD",
"I 	c #B8B9B7",
"J 	c #C7C7C7",
"K 	c #B9B9B8",
"L 	c #C7C7C6",
"M 	c #BEBFBE",
"N 	c #8C8E89",
"O 	c #BDBEB9",
"P 	c #979A94",
"Q 	c #A2A49F",
"R 	c #CDCDCC",
"S 	c #C9C9C8",
"T 	c #CDCECD",
"U 	c #C7C8C6",
"V 	c #C0C2C0",
"W 	c #CDCDCD",
"X 	c #C5C6C5",
"Y 	c #A0A39D",
"Z 	c #C6C8C4",
"` 	c #A1A49E",
" .	c #BABCB8",
"..	c #D9D9D8",
"+.	c #D5D5D4",
"@.	c #D0D1D0",
"#.	c #D7D7D6",
"$.	c #D6D7D6",
"%.	c #D7D8D7",
"&.	c #D0D1CF",
"*.	c #AEB1AB",
"=.	c #CACDC8",
"-.	c #ACAEA9",
";.	c #D8D9D7",
">.	c #E9E9E8",
",.	c #D8D8D7",
"'.	c #D7D8D6",
").	c #E5E5E4",
"!.	c #DEDFDE",
"~.	c #DEDEDD",
"{.	c #E4E5E3",
"].	c #E0E1DF",
"^.	c #D6D6D5",
"/.	c #BFC2BC",
"(.	c #CED0CC",
"_.	c #B2B5AF",
":.	c #BFC1BD",
"<.	c #DCDDDB",
"[.	c #C0C2BE",
"}.	c #C4C6C2",
"|.	c #DCDCDB",
"1.	c #D4D4D3",
"2.	c #CBCCC9",
"3.	c #D9DAD9",
"4.	c #BEC1BC",
"5.	c #C8CBC5",
"6.	c #CFD1CC",
"7.	c #B3B4AF",
"8.	c #B6BAB3",
"9.	c #B7BBB3",
"0.	c #B3B6AF",
"a.	c #B8BCB4",
"b.	c #B2B6AF",
"c.	c #B7BAB3",
"d.	c #B4B8B1",
"e.	c #B6BAB2",
"f.	c #CDD0CA",
"g.	c #CCCEC9",
"h.	c #AFB1AB",
"i.	c #C9CAC5",
"j.	c #A7A8A4",
"k.	c #B2B4AE",
"l.	c #B2B4AF",
"m.	c #B2B4B0",
"n.	c #B4B5B0",
"o.	c #B4B6B1",
"p.	c #B5B7B2",
"q.	c #B5B8B3",
"r.	c #B5B7B3",
"s.	c #C1C3BE",
"t.	c #C1C2BF",
"u.	c #949593",
"v.	c #CBCBC9",
"w.	c #C9CAC7",
"x.	c #9FA09E",
"        . + @ @ @ @ @ # $ %         ",
"      @ & * = = = - - - ; >         ",
"    , ' = ) ) ) ! ! - = - * ~ {     ",
"  ] ^ / ( _ : : < < < [ ( } | 1     ",
"  2 3 4 5 6 6 6 6 6 6 6 6 7 8 9 0   ",
"  a b b b b b b b b b b b b c d e   ",
"f g h h h h h h h h h i i i j k l m ",
"  n o p q r q s t u v w x y z A B   ",
"    C D E F G H I J . K L M N O     ",
"    P Q R S T F @ R U V W X Y Z     ",
"    `  .= ..+.@.#.$.+.#.%.&.*.=.    ",
"    -.;.#.>.,.'.).!.~.{.].^./.(.    ",
"    _.&.:.<.[.}.|.1.2.3.;.4.5.6.    ",
"    7.8.9.0.a.a.b.c.9.d.e.a.f.g.    ",
"    h.e.e.e.e.e.e.e.e.e.e.e.f.i.    ",
"    j.k.k.l.m.m.n.o.o.p.q.r.s.t.    ",
"    u.2.2.2.2.v.v.v.v.v.v.v.w.x.    ",
"                                    "};
