/* XPM */
static const char *const looping_search_xpm[] = {
"18 18 119 2",
"  	c None",
". 	c #809EC5",
"+ 	c #99B3D4",
"@ 	c #A0BAD9",
"# 	c #9BB6D6",
"$ 	c #8DA9CC",
"% 	c #6D8FBD",
"& 	c #A9C0DC",
"* 	c #BCD1E8",
"= 	c #B8CFE7",
"- 	c #B4CCE5",
"; 	c #B1CAE4",
"> 	c #AEC8E3",
", 	c #ADC7E3",
"' 	c #9DB9D8",
") 	c #7C9BC4",
"! 	c #698DBD",
"~ 	c #A6BDDA",
"{ 	c #B6CCE4",
"] 	c #A3BBD8",
"^ 	c #9FB8D7",
"/ 	c #A9C2DF",
"( 	c #AFC9E4",
"_ 	c #A9C4E2",
": 	c #A5C2E0",
"< 	c #9DBCDD",
"[ 	c #80A3CC",
"} 	c #799DC7",
"| 	c #87A8CF",
"1 	c #7595C0",
"2 	c #9EB6D5",
"3 	c #547DB3",
"4 	c #3D6DAA",
"5 	c #7796C1",
"6 	c #95B2D5",
"7 	c #8EB2D8",
"8 	c #7EA7D3",
"9 	c #7BA5D2",
"0 	c #81A4CD",
"a 	c #7090BD",
"b 	c #5580B8",
"c 	c #5D87BF",
"d 	c #6E91C0",
"e 	c #87ABD4",
"f 	c #77A3D1",
"g 	c #739FCF",
"h 	c #83A5CD",
"i 	c #3C6BA9",
"j 	c #6D95CA",
"k 	c #6187B8",
"l 	c #75A1D0",
"m 	c #729FCF",
"n 	c #85A6CE",
"o 	c #91AFD3",
"p 	c #8EAFD5",
"q 	c #8CAED4",
"r 	c #8EAACF",
"s 	c #6F8DBA",
"t 	c #95ACCD",
"u 	c #94ABCC",
"v 	c #92ABCC",
"w 	c #91AACC",
"x 	c #5F83B6",
"y 	c #93ABCD",
"z 	c #9BBBDD",
"A 	c #98B9DC",
"B 	c #99BADD",
"C 	c #9AB6D7",
"D 	c #92AACD",
"E 	c #9ABBDD",
"F 	c #A4C1E0",
"G 	c #698DBC",
"H 	c #3E6EAB",
"I 	c #9ABADD",
"J 	c #97B9DC",
"K 	c #96B8DB",
"L 	c #97B7DA",
"M 	c #6D94C3",
"N 	c #B7CDE6",
"O 	c #7899C5",
"P 	c #487BB7",
"Q 	c #8FA9CB",
"R 	c #A0BEDE",
"S 	c #99B7D9",
"T 	c #8FB3D9",
"U 	c #6F9DCE",
"V 	c #6C9BCD",
"W 	c #6E9BCC",
"X 	c #5E8BBE",
"Y 	c #527EB3",
"Z 	c #4779B5",
"` 	c #678FC3",
" .	c #5A88BF",
"..	c #5287C1",
"+.	c #4578B4",
"@.	c #8BA6C9",
"#.	c #83A1C7",
"$.	c #6F95C2",
"%.	c #729ECE",
"&.	c #6798CC",
"*.	c #6395CA",
"=.	c #6294CA",
"-.	c #6194CA",
";.	c #5E91C8",
">.	c #5A8FC7",
",.	c #568DC6",
"'.	c #4B80BB",
").	c #4F75AA",
"!.	c #496F9D",
"~.	c #5F8ABB",
"{.	c #6594C8",
"].	c #6596CB",
"^.	c #5F93C9",
"/.	c #5C90C8",
"(.	c #558AC3",
"_.	c #4679B3",
":.	c #345E92",
"<.	c #3C679C",
"[.	c #366196",
"                                    ",
"          . + @ # $ %               ",
"        & * = - ; > , ' )     !     ",
"      ~ { ] + ^ / ( _ : < [ } |     ",
"    1 2 3 4       5 6 7 8 9 9 0     ",
"    a b c             d e f g h     ",
"    i j               k e l m n     ",
"                      o p q p r     ",
"    s t u v w x                     ",
"    y z A B C                       ",
"    D E A F G                 H     ",
"    w I J K L M           N O P     ",
"    Q R S T U V W X Y Z `  ...+.    ",
"    @.#.  $.%.&.*.=.-.;.>.,.'.      ",
"    ).      !.~.{.].^./.(._.        ",
"                  :.<.[.            ",
"                                    ",
"                                    "};
