/* XPM */
static const char *const looping_search_on_xpm[] = {
"18 18 219 2",
"  	c None",
". 	c #FBDBB5",
"+ 	c #809EC5",
"@ 	c #99B3D4",
"# 	c #A0BAD9",
"$ 	c #9BB6D6",
"% 	c #8DA9CC",
"& 	c #6D8FBD",
"* 	c #A9C0DC",
"= 	c #BCD1E8",
"- 	c #B8CFE7",
"; 	c #B4CCE5",
"> 	c #B1CAE4",
", 	c #AEC8E3",
"' 	c #ADC7E3",
") 	c #9DB9D8",
"! 	c #7C9BC4",
"~ 	c #698DBD",
"{ 	c #FBDAB4",
"] 	c #FBDBB4",
"^ 	c #FBDAB3",
"/ 	c #A6BDDA",
"( 	c #B6CCE4",
"_ 	c #A3BBD8",
": 	c #9FB8D7",
"< 	c #A9C2DF",
"[ 	c #AFC9E4",
"} 	c #A9C4E2",
"| 	c #A5C2E0",
"1 	c #9DBCDD",
"2 	c #80A3CC",
"3 	c #799DC7",
"4 	c #87A8CF",
"5 	c #FBD8AE",
"6 	c #FCD8AE",
"7 	c #7595C0",
"8 	c #9EB6D5",
"9 	c #547DB3",
"0 	c #3D6DAA",
"a 	c #FBD9AF",
"b 	c #FBD9B0",
"c 	c #FBD8AF",
"d 	c #7796C1",
"e 	c #95B2D5",
"f 	c #8EB2D8",
"g 	c #7EA7D3",
"h 	c #7BA5D2",
"i 	c #81A4CD",
"j 	c #FBD9B1",
"k 	c #FBD6A8",
"l 	c #FCD5A9",
"m 	c #7090BD",
"n 	c #5580B8",
"o 	c #5D87BF",
"p 	c #FBD6A9",
"q 	c #FBD6AA",
"r 	c #FCD7AA",
"s 	c #FBD7AA",
"t 	c #FCD6A9",
"u 	c #6E91C0",
"v 	c #87ABD4",
"w 	c #77A3D1",
"x 	c #739FCF",
"y 	c #83A5CD",
"z 	c #FBD7AB",
"A 	c #FCD7AB",
"B 	c #FBD4A2",
"C 	c #FCD4A2",
"D 	c #3C6BA9",
"E 	c #6D95CA",
"F 	c #FCD3A2",
"G 	c #FBD4A3",
"H 	c #FBD4A4",
"I 	c #FCD4A4",
"J 	c #6187B8",
"K 	c #75A1D0",
"L 	c #729FCF",
"M 	c #85A6CE",
"N 	c #FCD5A6",
"O 	c #FCD4A6",
"P 	c #FCD19D",
"Q 	c #FBD19D",
"R 	c #FCD19C",
"S 	c #FCD19E",
"T 	c #FCD29E",
"U 	c #FBD29E",
"V 	c #FBD19E",
"W 	c #91AFD3",
"X 	c #8EAFD5",
"Y 	c #8CAED4",
"Z 	c #8EAACF",
"` 	c #FCD29F",
" .	c #FBCF97",
"..	c #FCCF97",
"+.	c #6F8DBA",
"@.	c #95ACCD",
"#.	c #94ABCC",
"$.	c #92ABCC",
"%.	c #91AACC",
"&.	c #5F83B6",
"*.	c #FCD099",
"=.	c #FCD098",
"-.	c #FCCF99",
";.	c #FBCF99",
">.	c #FBCF98",
",.	c #FCCF98",
"'.	c #FDCD92",
").	c #FDCD91",
"!.	c #93ABCD",
"~.	c #9BBBDD",
"{.	c #98B9DC",
"].	c #99BADD",
"^.	c #9AB6D7",
"/.	c #FCCD92",
"(.	c #FCCD93",
"_.	c #FDCB8C",
":.	c #FCCA8C",
"<.	c #92AACD",
"[.	c #9ABBDD",
"}.	c #A4C1E0",
"|.	c #698DBC",
"1.	c #FDCB8D",
"2.	c #FCCB8D",
"3.	c #3E6EAB",
"4.	c #FDCA8E",
"5.	c #FCCA8D",
"6.	c #FCC885",
"7.	c #FCC786",
"8.	c #9ABADD",
"9.	c #97B9DC",
"0.	c #96B8DB",
"a.	c #97B7DA",
"b.	c #6D94C3",
"c.	c #FCC886",
"d.	c #FDC886",
"e.	c #FCC988",
"f.	c #FDC888",
"g.	c #B7CDE6",
"h.	c #7899C5",
"i.	c #487BB7",
"j.	c #FCC887",
"k.	c #FDC57F",
"l.	c #FDC480",
"m.	c #8FA9CB",
"n.	c #A0BEDE",
"o.	c #99B7D9",
"p.	c #8FB3D9",
"q.	c #6F9DCE",
"r.	c #6C9BCD",
"s.	c #6E9BCC",
"t.	c #5E8BBE",
"u.	c #527EB3",
"v.	c #4779B5",
"w.	c #678FC3",
"x.	c #5A88BF",
"y.	c #5287C1",
"z.	c #4578B4",
"A.	c #FCC682",
"B.	c #FDC682",
"C.	c #FDC379",
"D.	c #8BA6C9",
"E.	c #83A1C7",
"F.	c #FDC37A",
"G.	c #6F95C2",
"H.	c #729ECE",
"I.	c #6798CC",
"J.	c #6395CA",
"K.	c #6294CA",
"L.	c #6194CA",
"M.	c #5E91C8",
"N.	c #5A8FC7",
"O.	c #568DC6",
"P.	c #4B80BB",
"Q.	c #FDC47C",
"R.	c #FDC37C",
"S.	c #FDC174",
"T.	c #FDC074",
"U.	c #4F75AA",
"V.	c #FDC075",
"W.	c #FDC175",
"X.	c #496F9D",
"Y.	c #5F8ABB",
"Z.	c #6594C8",
"`.	c #6596CB",
" +	c #5F93C9",
".+	c #5C90C8",
"++	c #558AC3",
"@+	c #4679B3",
"#+	c #FDC176",
"$+	c #FDC277",
"%+	c #FDBD6E",
"&+	c #FDBE6E",
"*+	c #FEBE6E",
"=+	c #FEBE6F",
"-+	c #FDBF70",
";+	c #FDBE70",
">+	c #345E92",
",+	c #3C679C",
"'+	c #366196",
")+	c #FEBF6F",
"!+	c #FDBF6F",
"~+	c #FDBF71",
"{+	c #FEBC68",
"]+	c #FDBC68",
"^+	c #FDBC69",
"/+	c #FEBC69",
"(+	c #FDBD6A",
"_+	c #FDBC6A",
":+	c #FEBC6A",
"<+	c #FDBD6B",
"[+	c #FDBA63",
"}+	c #FDB963",
"|+	c #FEB963",
"1+	c #FEBA62",
"2+	c #FEB962",
"3+	c #FEBA64",
"4+	c #FDBA64",
"5+	c #FDBA65",
"6+	c #FEB964",
". . . . . . . . . . . . . . . . . . ",
". . . . . + @ # $ % & . . . . . . . ",
". . . . * = - ; > , ' ) ! . . ~ . . ",
"{ ] ^ / ( _ @ : < [ } | 1 2 3 4 . . ",
"5 6 7 8 9 0 a b c d e f g h h i j j ",
"k l m n o p q r s t q u v w x y z A ",
"B C D E F G H I H I H J v K L M N O ",
"P Q P Q P R P S T U V W X Y X Z T ` ",
" ...+.@.#.$.%.&.*.=.-.-.;.=.>.;.,.-.",
"'.).!.~.{.].^././.(.(.(.(.(.(.(.(.(.",
"_.:.<.[.{.}.|.:.:.:.1.2.1.2.2.3.4.5.",
"6.7.%.8.9.0.a.b.c.d.c.e.f.g.h.i.j.j.",
"k.l.m.n.o.p.q.r.s.t.u.v.w.x.y.z.A.B.",
"C.C.D.E.F.G.H.I.J.K.L.M.N.O.P.Q.R.Q.",
"S.T.U.S.V.W.X.Y.Z.`. +.+++@+V.#+$+$+",
"%+&+*+&+&+=+-+;+;+>+,+'+)+;+!+=+~+-+",
"{+]+]+^+^+/+(+_+^+_+:+_+_+:+_+_+_+<+",
"[+}+|+}+1+}+2+|+3+4+3+5+4+6+4+3+4+3+"};
