/* XPM */
static const char *const match_case_xpm[] = {
"18 18 132 2",
"  	c None",
". 	c #728BB7",
"+ 	c #738CB7",
"@ 	c #728CB7",
"# 	c #718BB7",
"$ 	c #95ADCE",
"% 	c #ACC5E2",
"& 	c #A8C2E0",
"* 	c #A5C0E0",
"= 	c #A6C1E0",
"- 	c #92ABCD",
"; 	c #A5BDDB",
"> 	c #8CB0D8",
", 	c #89AED7",
"' 	c #86ACD6",
") 	c #83A9D6",
"! 	c #9EB8D9",
"~ 	c #839EC4",
"{ 	c #9FBCDE",
"] 	c #87ACD6",
"^ 	c #82A8D3",
"/ 	c #7FA6D2",
"( 	c #7EA5D4",
"_ 	c #92B2DA",
": 	c #819DC4",
"< 	c #9EB6D5",
"[ 	c #85ABD6",
"} 	c #82A8D5",
"| 	c #7297C5",
"1 	c #6E94C4",
"2 	c #79A2D3",
"3 	c #76A0D2",
"4 	c #96AFD2",
"5 	c #9CB9DB",
"6 	c #7FA6D4",
"7 	c #83A9D5",
"8 	c #688AB9",
"9 	c #6488B8",
"0 	c #7AA2D3",
"a 	c #709CD0",
"b 	c #8BACD6",
"c 	c #8EA6C9",
"d 	c #86ABD6",
"e 	c #88A9D2",
"f 	c #80A3D0",
"g 	c #6B97CF",
"h 	c #719BD1",
"i 	c #809CC4",
"j 	c #99B4D7",
"k 	c #7CA4D4",
"l 	c #7D9AC3",
"m 	c #7596C1",
"n 	c #6E99D0",
"o 	c #6191CD",
"p 	c #84A4D0",
"q 	c #7D97BC",
"r 	c #84A8D5",
"s 	c #719DD1",
"t 	c #8DADD7",
"u 	c #80A4D3",
"v 	c #5D8DCB",
"w 	c #6A95CE",
"x 	c #6D8CB7",
"y 	c #85A1C7",
"z 	c #6C99CF",
"A 	c #A5BCDC",
"B 	c #96AAC8",
"C 	c #97AAC9",
"D 	c #96AAC9",
"E 	c #94A8C8",
"F 	c #9DB6D9",
"G 	c #588ACA",
"H 	c #5688C9",
"I 	c #6E90C0",
"J 	c #88A9D4",
"K 	c #6997CF",
"L 	c #6795CE",
"M 	c #6292CD",
"N 	c #5F8FCC",
"O 	c #5B8DCB",
"P 	c #598BCA",
"Q 	c #5689CA",
"R 	c #5387C9",
"S 	c #5286C8",
"T 	c #4F83C8",
"U 	c #6992CB",
"V 	c #7D99BF",
"W 	c #6C97CF",
"X 	c #6493CD",
"Y 	c #739BD0",
"Z 	c #769DD0",
"` 	c #739AD0",
" .	c #7098CF",
"..	c #6E96CE",
"+.	c #6B94CD",
"@.	c #6892CC",
"#.	c #5F8CCA",
"$.	c #4A80C6",
"%.	c #4D81C7",
"&.	c #6689B8",
"*.	c #799BC9",
"=.	c #6291CD",
"-.	c #6492CD",
";.	c #6F8EB9",
">.	c #54719D",
",.	c #53709C",
"'.	c #51709B",
").	c #506F9B",
"!.	c #4F6E9B",
"~.	c #4E6E9B",
"{.	c #6185B5",
"].	c #4E82C7",
"^.	c #497FC6",
"/.	c #5F89C1",
"(.	c #6080AB",
"_.	c #6F98CF",
":.	c #5D8ECB",
"<.	c #6D96CC",
"[.	c #506F9A",
"}.	c #4A6B98",
"|.	c #5B89C6",
"1.	c #4A7FC6",
"2.	c #5687C8",
"3.	c #5075A6",
"4.	c #5D7AA4",
"5.	c #7590B5",
"6.	c #728EB4",
"7.	c #6785AE",
"8.	c #5C7DAA",
"9.	c #6283B0",
"0.	c #6183B0",
"a.	c #4E71A0",
"                                    ",
"              . + @ #               ",
"            $ % & * = -             ",
"            ; > , ' ) !             ",
"          ~ { ] ^ / ( _ :           ",
"          < [ } | 1 2 3 4           ",
"          5 6 7 8 9 0 a b           ",
"        c d 2 e     f g h i         ",
"        j 3 k l     m n o p         ",
"      q r s t         u v w x       ",
"      y a z A B C D E F G H I       ",
"      J K L M N O P Q R S T U       ",
"    V W X Y Z `  ...+.@.#.$.%.&.    ",
"    *.=.-.;.>.,.'.).!.~.{.].^./.    ",
"  (._.:.<.[.            }.|.1.2.3.  ",
"  4.5.6.7.                8.9.0.a.  ",
"                                    ",
"                                    "};
