/* XPM */
static const char *const match_case_on_xpm[] = {
"18 18 220 2",
"  	c None",
". 	c #FBDBB5",
"+ 	c #728BB7",
"@ 	c #738CB7",
"# 	c #728CB7",
"$ 	c #718BB7",
"% 	c #95ADCE",
"& 	c #ACC5E2",
"* 	c #A8C2E0",
"= 	c #A5C0E0",
"- 	c #A6C1E0",
"; 	c #92ABCD",
"> 	c #FBDAB4",
", 	c #FBDBB4",
"' 	c #FBDAB3",
") 	c #A5BDDB",
"! 	c #8CB0D8",
"~ 	c #89AED7",
"{ 	c #86ACD6",
"] 	c #83A9D6",
"^ 	c #9EB8D9",
"/ 	c #FBD8AE",
"( 	c #FCD8AE",
"_ 	c #FBD9B0",
": 	c #839EC4",
"< 	c #9FBCDE",
"[ 	c #87ACD6",
"} 	c #82A8D3",
"| 	c #7FA6D2",
"1 	c #7EA5D4",
"2 	c #92B2DA",
"3 	c #819DC4",
"4 	c #FBDAB1",
"5 	c #FBD9B1",
"6 	c #FBD6A8",
"7 	c #FCD5A9",
"8 	c #FCD5A8",
"9 	c #FBD6A9",
"0 	c #9EB6D5",
"a 	c #85ABD6",
"b 	c #82A8D5",
"c 	c #7297C5",
"d 	c #6E94C4",
"e 	c #79A2D3",
"f 	c #76A0D2",
"g 	c #96AFD2",
"h 	c #FBD6AA",
"i 	c #FBD7AB",
"j 	c #FCD7AB",
"k 	c #FBD4A2",
"l 	c #FCD4A2",
"m 	c #FBD3A3",
"n 	c #FCD4A3",
"o 	c #FCD3A2",
"p 	c #9CB9DB",
"q 	c #7FA6D4",
"r 	c #83A9D5",
"s 	c #688AB9",
"t 	c #6488B8",
"u 	c #7AA2D3",
"v 	c #709CD0",
"w 	c #8BACD6",
"x 	c #FCD4A4",
"y 	c #FBD4A4",
"z 	c #FCD5A6",
"A 	c #FCD4A6",
"B 	c #FCD19D",
"C 	c #FBD19D",
"D 	c #8EA6C9",
"E 	c #86ABD6",
"F 	c #88A9D2",
"G 	c #FCD29E",
"H 	c #FBD29E",
"I 	c #80A3D0",
"J 	c #6B97CF",
"K 	c #719BD1",
"L 	c #809CC4",
"M 	c #FCD29F",
"N 	c #FBCF97",
"O 	c #FCCF97",
"P 	c #FCCE97",
"Q 	c #99B4D7",
"R 	c #7CA4D4",
"S 	c #7D9AC3",
"T 	c #FCD099",
"U 	c #FCD098",
"V 	c #7596C1",
"W 	c #6E99D0",
"X 	c #6191CD",
"Y 	c #84A4D0",
"Z 	c #FBCF98",
"` 	c #FBCF99",
" .	c #FCCF98",
"..	c #FCCF99",
"+.	c #FDCD92",
"@.	c #FDCD91",
"#.	c #FCCC92",
"$.	c #7D97BC",
"%.	c #84A8D5",
"&.	c #719DD1",
"*.	c #8DADD7",
"=.	c #FCCD92",
"-.	c #FCCD93",
";.	c #80A4D3",
">.	c #5D8DCB",
",.	c #6A95CE",
"'.	c #6D8CB7",
").	c #FDCB8C",
"!.	c #FCCA8C",
"~.	c #85A1C7",
"{.	c #6C99CF",
"].	c #A5BCDC",
"^.	c #96AAC8",
"/.	c #97AAC9",
"(.	c #96AAC9",
"_.	c #94A8C8",
":.	c #9DB6D9",
"<.	c #588ACA",
"[.	c #5688C9",
"}.	c #6E90C0",
"|.	c #FCCB8D",
"1.	c #FDCA8E",
"2.	c #FCCA8D",
"3.	c #FCC885",
"4.	c #FCC786",
"5.	c #FDC886",
"6.	c #88A9D4",
"7.	c #6997CF",
"8.	c #6795CE",
"9.	c #6292CD",
"0.	c #5F8FCC",
"a.	c #5B8DCB",
"b.	c #598BCA",
"c.	c #5689CA",
"d.	c #5387C9",
"e.	c #5286C8",
"f.	c #4F83C8",
"g.	c #6992CB",
"h.	c #FCC888",
"i.	c #FCC887",
"j.	c #FDC57F",
"k.	c #FDC480",
"l.	c #7D99BF",
"m.	c #6C97CF",
"n.	c #6493CD",
"o.	c #739BD0",
"p.	c #769DD0",
"q.	c #739AD0",
"r.	c #7098CF",
"s.	c #6E96CE",
"t.	c #6B94CD",
"u.	c #6892CC",
"v.	c #5F8CCA",
"w.	c #4A80C6",
"x.	c #4D81C7",
"y.	c #6689B8",
"z.	c #FCC682",
"A.	c #FDC682",
"B.	c #FDC379",
"C.	c #799BC9",
"D.	c #6291CD",
"E.	c #6492CD",
"F.	c #6F8EB9",
"G.	c #54719D",
"H.	c #53709C",
"I.	c #51709B",
"J.	c #506F9B",
"K.	c #4F6E9B",
"L.	c #4E6E9B",
"M.	c #6185B5",
"N.	c #4E82C7",
"O.	c #497FC6",
"P.	c #5F89C1",
"Q.	c #FDC37C",
"R.	c #FDC47C",
"S.	c #FDC174",
"T.	c #6080AB",
"U.	c #6F98CF",
"V.	c #5D8ECB",
"W.	c #6D96CC",
"X.	c #506F9A",
"Y.	c #FDC175",
"Z.	c #FDC075",
"`.	c #4A6B98",
" +	c #5B89C6",
".+	c #4A7FC6",
"++	c #5687C8",
"@+	c #5075A6",
"#+	c #FDC277",
"$+	c #FDBD6E",
"%+	c #5D7AA4",
"&+	c #7590B5",
"*+	c #728EB4",
"=+	c #6785AE",
"-+	c #FEBE6F",
";+	c #FDBF70",
">+	c #FDBE70",
",+	c #FDBF6F",
"'+	c #FEBF6F",
")+	c #5C7DAA",
"!+	c #6283B0",
"~+	c #6183B0",
"{+	c #4E71A0",
"]+	c #FEBC68",
"^+	c #FDBC68",
"/+	c #FDBC69",
"(+	c #FEBC69",
"_+	c #FDBD6A",
":+	c #FDBC6A",
"<+	c #FEBC6A",
"[+	c #FDBD6B",
"}+	c #FDBA63",
"|+	c #FDB963",
"1+	c #FEB963",
"2+	c #FEBA62",
"3+	c #FEB962",
"4+	c #FEBA64",
"5+	c #FDBA64",
"6+	c #FDBA65",
"7+	c #FEB964",
". . . . . . . . . . . . . . . . . . ",
". . . . . . . + @ # $ . . . . . . . ",
". . . . . . % & * = - ; . . . . . . ",
"> , ' . . . ) ! ~ { ] ^ . . . . . . ",
"/ ( / / _ : < [ } | 1 2 3 _ _ 4 5 5 ",
"6 7 8 6 9 0 a b c d e f g h h i i j ",
"k l m n o p q r s t u v w x x y z A ",
"B C B C D E e F G H I J K L G G G M ",
"N O O P Q f R S T U V W X Y Z `  ...",
"+.@.#.$.%.&.*.=.=.-.-.;.>.,.'.-.-.-.",
").!.!.~.v {.].^./.(._.:.<.[.}.|.1.2.",
"3.4.5.6.7.8.9.0.a.b.c.d.e.f.g.h.i.i.",
"j.k.l.m.n.o.p.q.r.s.t.u.v.w.x.y.z.A.",
"B.B.C.D.E.F.G.H.I.J.K.L.M.N.O.P.Q.R.",
"S.T.U.V.W.X.Y.Z.Y.Y.Y.Y.`. +.+++@+#+",
"$+%+&+*+=+-+;+>+>+;+>+,+'+)+!+~+{+;+",
"]+^+^+/+/+(+_+:+/+:+<+:+:+<+:+:+:+[+",
"}+|+1+|+2+|+3+1+4+5+4+6+5+7+5+4+5+4+"};
