/* XPM */
static const char *const save_xpm[] = {
"18 18 171 2",
"  	c None",
". 	c #7385A2",
"+ 	c #8C9FBD",
"@ 	c #A58595",
"# 	c #B46E72",
"$ 	c #B36D71",
"% 	c #B36C6F",
"& 	c #B36A6E",
"* 	c #B3696D",
"= 	c #B3686C",
"- 	c #B2666A",
"; 	c #B26568",
"> 	c #B26467",
", 	c #B16266",
"' 	c #9F778A",
") 	c #7B90B2",
"! 	c #657798",
"~ 	c #8B9FBD",
"{ 	c #4E709B",
"] 	c #B4698D",
"^ 	c #D32514",
"/ 	c #D32515",
"( 	c #D32516",
"_ 	c #B26084",
": 	c #638BC6",
"< 	c #778DB0",
"[ 	c #879CBA",
"} 	c #6E9AD3",
"| 	c #D5DEEE",
"1 	c #FFFEFE",
"2 	c #D3DAE9",
"3 	c #6189C2",
"4 	c #748AAE",
"5 	c #8499B8",
"6 	c #6B97D1",
"7 	c #F4F4F4",
"8 	c #F2F2F2",
"9 	c #5E85BF",
"0 	c #7086AB",
"a 	c #8196B6",
"b 	c #6993CD",
"c 	c #D4DDED",
"d 	c #FFFFFF",
"e 	c #D3D9E8",
"f 	c #5C81BB",
"g 	c #6D83A8",
"h 	c #7E93B4",
"i 	c #6690CA",
"j 	c #D4DCEC",
"k 	c #F5F5F5",
"l 	c #D3D9E7",
"m 	c #597EB8",
"n 	c #697FA6",
"o 	c #7A90B2",
"p 	c #648CC6",
"q 	c #D4DBEB",
"r 	c #D2D8E6",
"s 	c #577AB5",
"t 	c #657BA3",
"u 	c #778CAF",
"v 	c #6189C3",
"w 	c #D3DAEA",
"x 	c #D2D7E5",
"y 	c #5477B1",
"z 	c #6277A0",
"A 	c #7389AD",
"B 	c #D4DAE9",
"C 	c #D2D7E4",
"D 	c #5273AE",
"E 	c #5D749D",
"F 	c #7085AA",
"G 	c #5C81BC",
"H 	c #6F8CBF",
"I 	c #798FBA",
"J 	c #7E8AA3",
"K 	c #7F8BA3",
"L 	c #808BA3",
"M 	c #818CA3",
"N 	c #818CA4",
"O 	c #818BA3",
"P 	c #808AA1",
"Q 	c #7D88A0",
"R 	c #7487B1",
"S 	c #6780B2",
"T 	c #4F70AA",
"U 	c #59709A",
"V 	c #6C82A8",
"W 	c #597DB7",
"X 	c #637597",
"Y 	c #B3B3B3",
"Z 	c #757B8A",
"` 	c #737A90",
" .	c #B8B8B8",
"..	c #C4C4C4",
"+.	c #BEBEBE",
"@.	c #B6B6B6",
"#.	c #ADADAD",
"$.	c #5D6C8F",
"%.	c #4E6EA8",
"&.	c #4C6CA7",
"*.	c #556C97",
"=.	c #687EA5",
"-.	c #577AB4",
";.	c #667697",
">.	c #C2C2C2",
",.	c #50628B",
"'.	c #49659C",
").	c #A9A9A9",
"!.	c #B5B5B5",
"~.	c #A5A5A5",
"{.	c #9C9C9C",
"].	c #59688A",
"^.	c #4B6AA5",
"/.	c #4A69A3",
"(.	c #516794",
"_.	c #647AA2",
":.	c #5476B0",
"<.	c #657595",
"[.	c #C0C0C0",
"}.	c #4F628B",
"|.	c #999999",
"1.	c #A2A2A2",
"2.	c #9A9A9A",
"3.	c #919191",
"4.	c #898989",
"5.	c #556486",
"6.	c #4967A1",
"7.	c #4765A0",
"8.	c #4D6490",
"9.	c #60779F",
"0.	c #5172AD",
"a.	c #607091",
"b.	c #AEAEAE",
"c.	c #4F618A",
"d.	c #4A659C",
"e.	c #898988",
"f.	c #8F8F8F",
"g.	c #868686",
"h.	c #7F7F7F",
"i.	c #777777",
"j.	c #515F82",
"k.	c #46639E",
"l.	c #45629C",
"m.	c #495F8D",
"n.	c #485D84",
"o.	c #5E7AAC",
"p.	c #5A78AE",
"q.	c #616F8F",
"r.	c #7E7F7F",
"s.	c #767677",
"t.	c #808080",
"u.	c #7B7B7B",
"v.	c #747474",
"w.	c #6E6E6E",
"x.	c #6B6B6B",
"y.	c #525F82",
"z.	c #4A659E",
"A.	c #49649C",
"B.	c #455A8A",
"C.	c #3D5076",
"D.	c #485065",
"E.	c #5D5D5E",
"F.	c #59595A",
"G.	c #565657",
"H.	c #535455",
"I.	c #515153",
"J.	c #505052",
"K.	c #515152",
"L.	c #525254",
"M.	c #424A61",
"N.	c #334670",
"                                    ",
"  . + @ # $ % & * = - ; > , ' ) !   ",
"  ~ { ] ^ ^ / / / / / / / ( _ : <   ",
"  [ } | 1 1 1 1 1 1 1 1 1 1 2 3 4   ",
"  5 6 | 7 8 8 8 8 8 8 8 8 7 2 9 0   ",
"  a b c d d d d d d d d d d e f g   ",
"  h i j k 7 7 7 7 7 7 7 7 k l m n   ",
"  o p q d d d d d d d d d d r s t   ",
"  u v w k 7 7 7 7 7 7 7 7 k x y z   ",
"  A 9 B d d d d d d d d d d C D E   ",
"  F G H I J K L M N O P Q R S T U   ",
"  V m W X Y Z `  ...+.@.#.$.%.&.*.  ",
"  =.s -.;.>.,.'.).!.#.~.{.].^./.(.  ",
"  _.y :.<.[.}.'.|.1.2.3.4.5.6.7.8.  ",
"  9.D 0.a.b.c.d.e.f.g.h.i.j.k.l.m.  ",
"  n.o.p.q.{.r.s.t.u.v.w.x.y.z.A.B.  ",
"      C.D.E.F.G.H.I.J.K.L.M.N.      ",
"                                    "};
