/* XPM */
static const char *const search_left_xpm[] = {
"18 18 191 2",
"  	c None",
". 	c #000000",
"+ 	c #91928E",
"@ 	c #000000",
"# 	c #000000",
"$ 	c #000000",
"% 	c #000000",
"& 	c #000000",
"* 	c #000000",
"= 	c #000000",
"- 	c #000000",
"; 	c #000000",
"> 	c #000000",
", 	c #000000",
"' 	c #000000",
") 	c #000000",
"! 	c #000000",
"~ 	c #000000",
"{ 	c #868983",
"] 	c #878985",
"^ 	c #000000",
"/ 	c #000000",
"( 	c #000000",
"_ 	c #000000",
": 	c #000000",
"< 	c #000000",
"[ 	c #000000",
"} 	c #000000",
"| 	c #888A85",
"1 	c #FFFFFF",
"2 	c #8B8D88",
"3 	c #F8F8F7",
"4 	c #F7F7F6",
"5 	c #F6F6F5",
"6 	c #999999",
"7 	c #BCBCBC",
"8 	c #F5F5F5",
"9 	c #F5F5F4",
"0 	c #F4F4F4",
"a 	c #F4F4F3",
"b 	c #F6F6F6",
"c 	c #F3F3F3",
"d 	c #F3F3F2",
"e 	c #D9D9D9",
"f 	c #F2F2F2",
"g 	c #F2F2F1",
"h 	c #F7F7F7",
"i 	c #F1F1F1",
"j 	c #F1F1F0",
"k 	c #F0F0F0",
"l 	c #F0F0EF",
"m 	c #EFEFEF",
"n 	c #EFEFEE",
"o 	c #EEEEEE",
"p 	c #EDEDED",
"q 	c #BBBBBA",
"r 	c #EEEEED",
"s 	c #EDEDEC",
"t 	c #BABABA",
"u 	c #ECECEC",
"v 	c #EBEBEB",
"w 	c #E8E8E7",
"x 	c #A5A6A3",
"y 	c #ECECEB",
"z 	c #DCDDDC",
"A 	c #6C6E6B",
"B 	c #7E7F7D",
"C 	c #EAEAEA",
"D 	c #C9C9C7",
"E 	c #5F615D",
"F 	c #555753",
"G 	c #7E7F7C",
"H 	c #E9E9E9",
"I 	c #B5B6B4",
"J 	c #585A56",
"K 	c #7D7E7C",
"L 	c #EAEAE9",
"M 	c #A4A5A3",
"N 	c #EBEBEA",
"O 	c #E8E8E8",
"P 	c #848683",
"Q 	c #727470",
"R 	c #C6C6C5",
"S 	c #C9CAC9",
"T 	c #CDCDCD",
"U 	c #D1D1D0",
"V 	c #D5D6D4",
"W 	c #D8D8D8",
"X 	c #DDDDDC",
"Y 	c #E0E0DF",
"Z 	c #E3E3E3",
"` 	c #E6E6E6",
" .	c #E2E2E1",
"..	c #747672",
"+.	c #565854",
"@.	c #656763",
"#.	c #747673",
"$.	c #838481",
"%.	c #929391",
"&.	c #A2A3A1",
"*.	c #B1B2B0",
"=.	c #C0C0BE",
"-.	c #CECECE",
";.	c #DDDEDD",
">.	c #E7E7E7",
",.	c #D5D5D4",
"'.	c #676965",
").	c #B0B1AF",
"!.	c #BFBFBE",
"~.	c #E7E7E6",
"{.	c #BFC0BF",
"].	c #5B5D59",
"^.	c #929390",
"/.	c #A1A2A0",
"(.	c #BEBEBD",
"_.	c #DBDCDB",
":.	c #E6E6E5",
"<.	c #FFFFFE",
"[.	c #AEAFAC",
"}.	c #919290",
"|.	c #CCCCCC",
"1.	c #959793",
"2.	c #AFB0AE",
"3.	c #DADBDA",
"4.	c #E6E6E4",
"5.	c #FEFEFE",
"6.	c #878885",
"7.	c #737572",
"8.	c #828380",
"9.	c #A0A19F",
"0.	c #BEBEBC",
"a.	c #DADBD9",
"b.	c #E5E5E4",
"c.	c #DCDCDA",
"d.	c #6D6F6B",
"e.	c #AEAFAD",
"f.	c #BDBDBC",
"g.	c #CCCCCB",
"h.	c #E5E5E3",
"i.	c #E4E4E4",
"j.	c #7A7C79",
"k.	c #90918F",
"l.	c #BDBDBB",
"m.	c #D9DAD8",
"n.	c #E5E5E2",
"o.	c #8C8D8A",
"p.	c #A0A19E",
"q.	c #BCBCBB",
"r.	c #CBCBCA",
"s.	c #D9DAD7",
"t.	c #E4E4E2",
"u.	c #646662",
"v.	c #82837F",
"w.	c #9FA09E",
"x.	c #CBCBC9",
"y.	c #D8D9D7",
"z.	c #E4E4E1",
"A.	c #B3B4B2",
"B.	c #595B57",
"C.	c #90918E",
"D.	c #AEAFAB",
"E.	c #BCBCBA",
"F.	c #CACAC9",
"G.	c #D8D9D6",
"H.	c #E3E3E0",
"I.	c #C4C5C2",
"J.	c #656762",
"K.	c #8F908E",
"L.	c #999A96",
"M.	c #A9AAA8",
"N.	c #B2B3B0",
"O.	c #BBBCBA",
"P.	c #C4C4C2",
"Q.	c #CCCCCA",
"R.	c #D5D5D3",
"S.	c #DDDEDB",
"T.	c #D4D4D4",
"U.	c #6B6C69",
"V.	c #7C7D7A",
"W.	c #E3E3DF",
"X.	c #DDDDDD",
"Y.	c #787976",
"Z.	c #7C7D79",
"`.	c #E2E2DF",
" +	c #E2E2DE",
".+	c #E4E4E3",
"++	c #898A88",
"@+	c #9E9F9D",
"#+	c #7B7C79",
"$+	c #AFAFAD",
"%+	c #D3D4D2",
"    R I.I.I.I.I.I.I.I.I.I.I.I.R     ",
"  M.5.3 3 3 3 3 3 3 3 3 3 3 3 3 M.  ",
"  M.3 L t t t t t t  .3 3 4 5 3 M.  ",
"  M.3 d i.i.i.i.i.>.4 3 4 8 0 h M.  ",
"  M.3 n U U U U U V 5 5 9 a f 5 M.  ",
"  M.3 L t t t t t Y 9 0 d g j 9 M.  ",
"  M.3 d i.i.i..+Z  .s f j k n c M.  ",
"  M.3 n -.-.-.T F.g.i.j m o p f M.  ",
"  M.3 3 4 5 9 U 7 i l n r u v k M.  ",
"  M.3 5 9 c =.].M.~.w H C C H m M.  ",
"  M.3 0 l [.J F E U.6.M.-.O O o M.  ",
"  M.h N L.F F F F B.K M r.` ~.s M.  ",
"  M.b -.E F F F F B.V.M F.b.4.s M.  ",
"  M.9 n U U.F F F B.#+&.D t.n.y M.  ",
"  M.c p u W j.F ++*.q D G.z.z.N M.  ",
"  M.f v C H ;.++M.:.h.n.z.H.W.L M.  ",
"  &.d u v C L .+U w ~.4.4.n.n.y x   ",
"    =.=.=.=.=.!.!.(.(.(.(.(.!.=.    "};
