/* XPM */
static const char *const search_right_xpm[] = {
"18 18 188 2",
"  	c None",
". 	c #000000",
"+ 	c #91928E",
"@ 	c #000000",
"# 	c #000000",
"$ 	c #000000",
"% 	c #000000",
"& 	c #000000",
"* 	c #000000",
"= 	c #000000",
"- 	c #000000",
"; 	c #000000",
"> 	c #000000",
", 	c #000000",
"' 	c #000000",
") 	c #000000",
"! 	c #000000",
"~ 	c #000000",
"{ 	c #868983",
"] 	c #878985",
"^ 	c #000000",
"/ 	c #000000",
"( 	c #000000",
"_ 	c #000000",
": 	c #000000",
"< 	c #000000",
"[ 	c #000000",
"} 	c #000000",
"| 	c #888A85",
"1 	c #FFFFFF",
"2 	c #8B8D88",
"3 	c #F8F8F7",
"4 	c #F7F7F6",
"5 	c #F6F6F5",
"6 	c #999999",
"7 	c #F5F5F5",
"8 	c #F5F5F4",
"9 	c #F4F4F4",
"0 	c #F4F4F3",
"a 	c #F6F6F6",
"b 	c #F3F3F3",
"c 	c #F3F3F2",
"d 	c #EAEAE9",
"e 	c #F2F2F2",
"f 	c #E9E9E9",
"g 	c #F2F2F1",
"h 	c #F7F7F7",
"i 	c #F1F1F1",
"j 	c #F1F1F0",
"k 	c #F0F0F0",
"l 	c #DFDFDE",
"m 	c #F0F0EF",
"n 	c #DEDEDD",
"o 	c #EFEFEF",
"p 	c #EFEFEE",
"q 	c #EEEEEE",
"r 	c #EDEDED",
"s 	c #EEEEED",
"t 	c #EDEDEC",
"u 	c #ECECEC",
"v 	c #EBEBEB",
"w 	c #9A9B98",
"x 	c #ECECEB",
"y 	c #676865",
"z 	c #777875",
"A 	c #E3E3E2",
"B 	c #EAEAEA",
"C 	c #676864",
"D 	c #555753",
"E 	c #666863",
"F 	c #D2D3D2",
"G 	c #666764",
"H 	c #5C5E5A",
"I 	c #C1C1C0",
"J 	c #575955",
"K 	c #A7A8A6",
"L 	c #EBEBEA",
"M 	c #E8E8E8",
"N 	c #E7E7E6",
"O 	c #DEDFDD",
"P 	c #DADAD8",
"Q 	c #D4D5D4",
"R 	c #D0D1CF",
"S 	c #CBCBCA",
"T 	c #C8C8C6",
"U 	c #C7C7C6",
"V 	c #61635F",
"W 	c #949593",
"X 	c #E8E8E7",
"Y 	c #E4E4E2",
"Z 	c #D3D4D2",
"` 	c #C4C4C3",
" .	c #B3B4B2",
"..	c #A3A4A2",
"+.	c #939491",
"@.	c #838582",
"#.	c #737471",
"$.	c #636561",
"%.	c #7E7F7D",
"&.	c #E2E2E2",
"*.	c #E7E7E7",
"=.	c #C4C4C2",
"-.	c #B2B3B2",
";.	c #A3A4A1",
">.	c #6F706D",
",.	c #D8D8D7",
"'.	c #E3E3E1",
").	c #C3C3C1",
"!.	c #A2A3A1",
"~.	c #939490",
"{.	c #60625E",
"].	c #C5C6C5",
"^.	c #E6E6E5",
"/.	c #FFFFFE",
"(.	c #E2E2E1",
"_.	c #D2D3D1",
":.	c #C2C2C1",
"<.	c #B2B3B1",
"[.	c #929390",
"}.	c #838581",
"|.	c #636560",
"1.	c #595B57",
"2.	c #B3B3B2",
"3.	c #E2E2E0",
"4.	c #D1D2D1",
"5.	c #B1B2B1",
"6.	c #A2A3A0",
"7.	c #828481",
"8.	c #626460",
"9.	c #565854",
"0.	c #999A98",
"a.	c #E6E6E6",
"b.	c #E6E6E4",
"c.	c #FEFEFE",
"d.	c #E1E1E0",
"e.	c #D0D1D0",
"f.	c #C2C2C0",
"g.	c #B1B2B0",
"h.	c #A1A2A0",
"i.	c #92938F",
"j.	c #E5E5E4",
"k.	c #B0B1B0",
"l.	c #91928F",
"m.	c #757673",
"n.	c #D9D9D7",
"o.	c #E5E5E3",
"p.	c #E0E0DF",
"q.	c #CFD0CF",
"r.	c #C1C1BF",
"s.	c #A1A29F",
"t.	c #727370",
"u.	c #848683",
"v.	c #E5E5E2",
"w.	c #E0E0DE",
"x.	c #CECFCE",
"y.	c #C0C0BF",
"z.	c #AFB0AF",
"A.	c #A0A19F",
"B.	c #818380",
"C.	c #939492",
"D.	c #BFBFBE",
"E.	c #585A56",
"F.	c #AAABA9",
"G.	c #E4E4E1",
"H.	c #A0A19E",
"I.	c #90918E",
"J.	c #5D5F5B",
"K.	c #BCBCBB",
"L.	c #E3E3E0",
"M.	c #D9DAD9",
"N.	c #D1D1D0",
"O.	c #C6C7C6",
"P.	c #BEBEBD",
"Q.	c #B4B5B3",
"R.	c #ABACAA",
"S.	c #989997",
"T.	c #90918F",
"U.	c #CDCECC",
"V.	c #E9E9E8",
"W.	c #656764",
"X.	c #747671",
"Y.	c #E3E3DF",
"Z.	c #838482",
"`.	c #E2E2DF",
" +	c #E2E2DE",
".+	c #A9AAA7",
"++	c #6C6E6B",
"@+	c #BBBCB9",
"    ].` ` ` ` ` ` ` ` ` ` ` ` ].    ",
"  K c.3 3 3 3 3 3 3 3 3 3 3 3 3 F.  ",
"  K 3 3 3 3 3 3 3 d @+@+@+Q.V.3 F.  ",
"  K 3 3 3 3 3 3 3 c j.Y Y Y 0 h F.  ",
"  K 3 3 3 3 3 3 3 p x.x.U.e.g 5 F.  ",
"  K 3 3 3 3 3 3 3 V.Q.Q.Q.R j 8 F.  ",
"  K 3 3 3 3 3 4 5 m d.p.l n L b F.  ",
"  K 3 3 3 3 a 8 i d S S S S j.e F.  ",
"  K 3 3 4 5 8 0 R.M.m p s u v k F.  ",
"  K 3 5 c p x V.l.y S r u L f o F.  ",
"  K 3 j x.K }.y 1.D J.@+V.f M q F.  ",
"  K h p S A.z 9.D D D D ..j.N t F.  ",
"  K a r S H.z 9.D D D D ++Q b.t F.  ",
"  K 8 x T H.m.9.D D D z Q j.v.x F.  ",
"  K b v M.S @+<.z D 2 P o.Y G.L F.  ",
"  K e v B f M *.T.0.d.v.G.L.Y.d F.  ",
"  ;.c u v B d V.S b.N b.b.v.v.x K   ",
"    r.D.D.D.D.D.D.P.P.P.P.P.D.I     "};
