/* XPM */
static const char *const window_position_xpm[] = {
"18 18 143 2",
"  	c None",
". 	c #000000",
"+ 	c #949494",
"@ 	c #9E9E9E",
"# 	c #9D9D9D",
"$ 	c #9F9F9F",
"% 	c #999999",
"& 	c #9C9C9C",
"* 	c #DCDCDC",
"= 	c #8F8F8F",
"- 	c #9C9C9C",
"; 	c #8F8F8F",
"> 	c #9B9B9B",
", 	c #999999",
"' 	c #8F8F8F",
") 	c #8F8F8F",
"! 	c #8E8E8E",
"~ 	c #E3E3E3",
"{ 	c #E4E4E4",
"] 	c #E5E5E5",
"^ 	c #A7A7A7",
"/ 	c #AAAAAA",
"( 	c #989898",
"_ 	c #BEBEBE",
": 	c #000000",
"< 	c #949494",
"[ 	c #000000",
"} 	c #929292",
"| 	c #BDBDBD",
"1 	c #000000",
"2 	c #909090",
"3 	c #000000",
"4 	c #5E5E5E",
"5 	c #8F8F8F",
"6 	c #909090",
"7 	c #8E8E8E",
"8 	c #B4B4B4",
"9 	c #000000",
"0 	c #000000",
"a 	c #000000",
"b 	c #070707",
"c 	c #B4B4B4",
"d 	c #BBBBBB",
"e 	c #000000",
"f 	c #555555",
"g 	c #B7B7B7",
"h 	c #BABABA",
"i 	c #808080",
"j 	c #B6B6B6",
"k 	c #B9B9B9",
"l 	c #1A1A1A",
"m 	c #B2B2B2",
"n 	c #B8B8B8",
"o 	c #464646",
"p 	c #000000",
"q 	c #080808",
"r 	c #B1B1B1",
"s 	c #B4B4B4",
"t 	c #242424",
"u 	c #000000",
"v 	c #070707",
"w 	c #B0B0B0",
"x 	c #B4B4B4",
"y 	c #1F1F1F",
"z 	c #000000",
"A 	c #000000",
"B 	c #000000",
"C 	c #959595",
"D 	c #BCBCBC",
"E 	c #BDBDBD",
"F 	c #BCBCBC",
"G 	c #959595",
"H 	c #000000",
"I 	c #000000",
"J 	c #2B2B2B",
"K 	c #282828",
"L 	c #282828",
"M 	c #000000",
"N 	c #000000",
"O 	c #000000",
"P 	c #000000",
"Q 	c #000000",
"R 	c #EEF0F4",
"S 	c #CFD8E5",
"T 	c #D1DAE7",
"U 	c #DBE1EB",
"V 	c #607EA9",
"W 	c #6784AD",
"X 	c #E3E3E3",
"Y 	c #E5E9F0",
"Z 	c #8CA1C1",
"` 	c #91A5C4",
" .	c #F8F8FA",
"..	c #E5EAF0",
"+.	c #E7ECF2",
"@.	c #E2E2E2",
"#.	c #FBFBFB",
"$.	c #E1E1E1",
"%.	c #F9F9F9",
"&.	c #F8F8F8",
"*.	c #DFDFDF",
"=.	c #F7F7F7",
"-.	c #F5F5F5",
";.	c #F2F2F2",
">.	c #F3F3F3",
",.	c #DDDDDD",
"'.	c #F4F4F4",
").	c #F0F0F0",
"!.	c #EAEAEA",
"~.	c #D6D6D6",
"{.	c #D7D7D7",
"].	c #C7C7C7",
"^.	c #EDEDED",
"/.	c #B0B0B0",
"(.	c #E5E5E5",
"_.	c #E9E9E9",
":.	c #BDBDBD",
"<.	c #A9BAD1",
"[.	c #5978A6",
"}.	c #A4B4CE",
"|.	c #EEEEEE",
"1.	c #E7E7E7",
"2.	c #E6E6E6",
"3.	c #BAC7DA",
"4.	c #7B94B8",
"5.	c #B5C3D7",
"6.	c #E4E4E4",
"7.	c #BCBCBC",
"8.	c #DDE4EC",
"9.	c #BEC9DC",
"0.	c #DAE1EA",
"a.	c #EBEBEB",
"b.	c #BBBBBB",
"c.	c #FDFDFD",
"d.	c #FCFCFC",
"e.	c #E0E0E0",
"f.	c #FAFAFA",
"g.	c #E8E8E8",
"h.	c #F6F6F6",
"i.	c #F1F1F1",
"j.	c #EFEFEF",
"k.	c #ECECEC",
"l.	c #FFFFFF",
"                                    ",
"  8.9.9.9.9.9.9.9.9.9.*             ",
"  0.` ` ` ` ` ` ` ` ` *             ",
"  %.=.=.=.=.=.=.=.=.=.~             ",
"  =.=.=.=.=.=.=.=.=.=.$.            ",
"  >.i.i.i.i.a.!.!.!.a.{.            ",
"  ).^.^.^.*.,.* * * * * {.* * * g   ",
"  k.1.g.g.* 5.4.4.4.4.4.4.4.4.4._   ",
"  _.~ ~ ~ {.R +.+.+.+.+.+.+.+.+.].  ",
"  g.] ] ] {.h.&.&.&.&.&.&.&.&.&.].  ",
"  } = = = & ;.>.>.>.>.>.>.>.>.>.].  ",
"            |.|.|.|.|.|.|.|.|.j.].  ",
"            !._._._._._._._._._.].  ",
"            2.{ ] ] ] ] ] ] ] ] ].  ",
"            { $.$.$.$.$.$.$.$.@._   ",
"            d | D D D D D D D | $   ",
"                                    ",
"                                    "};
