<?xml version="1.0" encoding="utf-8"?>
<!-- Generator: Adobe Illustrator 24.1.0, SVG Export Plug-In . SVG Version: 6.00 Build 0)  -->
<svg version="1.0" id="Layer_1" xmlns="http://www.w3.org/2000/svg" xmlns:xlink="http://www.w3.org/1999/xlink" x="0px" y="0px"
	 viewBox="0 0 127.56 127.56" style="enable-background:new 0 0 127.56 127.56;" xml:space="preserve">
<style type="text/css">
	.st0{fill:#15073E;}
	.st1{fill:#F88011;}
	.st2{fill:#F96611;}
	.st3{fill:#F9B20C;}
	.st4{fill:#FFFFFF;}
	.st5{fill:#FCCC12;}
	.st6{fill:#F79910;}
</style>
<path class="st0" d="M111.68,127.56h-95.8C7.14,127.56,0,120.41,0,111.68v-95.8C0,7.14,7.15,0,15.88,0h95.81
	c8.74,0,15.88,7.15,15.88,15.88v95.81C127.56,120.42,120.41,127.56,111.68,127.56z"/>
<path class="st1" d="M71.64,52.22c-1.91-1.6-2.17-4.48-0.56-6.38l28.85-34.39c1.6-1.91,4.48-2.17,6.38-0.56
	c1.82,1.52,2.06,4.26,0.54,6.08L77.72,51.7C76.2,53.52,73.46,53.75,71.64,52.22z"/>
<path class="st2" d="M62.4,50.33c-2.42,0.88-5.13-0.38-6-2.8l-4.9-13.46c-0.88-2.42,0.38-5.13,2.8-6c2.14-0.78,4.55,0.34,5.33,2.48
	l5.26,14.46C65.67,47.15,64.55,49.55,62.4,50.33z"/>
<path class="st3" d="M73.51,66.77c2.34-0.85,4.96,0.37,5.81,2.71l15.35,42.18c0.85,2.34-0.37,4.96-2.71,5.81
	c-2.23,0.81-4.72-0.35-5.53-2.58L70.92,72.31C70.12,70.06,71.28,67.58,73.51,66.77z"/>
<path class="st4" d="M66.01,70.74c1.98,1.66,2.24,4.63,0.58,6.6l-9.21,10.98c-1.66,1.98-4.63,2.24-6.6,0.58
	c-1.76-1.47-1.99-4.11-0.52-5.86l9.88-11.79C61.61,69.5,64.25,69.28,66.01,70.74z"/>
<path class="st5" d="M62.37,61.93c-0.43,2.46-2.8,4.11-5.25,3.68l-44.21-7.79c-2.46-0.43-4.11-2.8-3.68-5.25
	c0.41-2.33,2.66-3.91,4.99-3.5l44.64,7.88C61.2,57.34,62.78,59.59,62.37,61.93z"/>
<path class="st6" d="M102.9,60.84c-0.45,2.54-2.89,4.25-5.44,3.81l-14.11-2.49c-2.54-0.45-4.25-2.89-3.81-5.44
	c0.4-2.25,2.57-3.77,4.82-3.38l15.15,2.67C101.78,56.41,103.3,58.59,102.9,60.84z"/>
</svg>
